# xmcd CD database file
#
# Track frame offsets:
#	150
#	21404
#	39458
#	62534
#	91909
#	114959
#	160121
#	176482
#	195637
#
# Disc length: 3021 seconds
#
# Revision: 0
# Processed by: cddbd v1.5.2PL0 Copyright (c) Steve Scherf et al.
# Submitted via: CDex 1.70beta2
#
DISCID=680bcb09
DTITLE=Ratko Zjaca and Stanislav Mitrovic - The Nocturnal Mission Quartet
DYEAR=1994
DGENRE=Jazz
TTITLE0=Blues Connotation
TTITLE1=Bye-ya
TTITLE2=A Long Time Away From Home
TTITLE3=Didn't Sleep Well
TTITLE4=Replacement
TTITLE5=Milestones
TTITLE6=Time Remembered
TTITLE7=Work
TTITLE8=Silent Tears
EXTD=YEAR: 1994
EXTT0=
EXTT1=
EXTT2=
EXTT3=
EXTT4=
EXTT5=
EXTT6=
EXTT7=
EXTT8=
PLAYORDER=
